<svg xmlns="http://www.w3.org/2000/svg" xmlns:xlink="http://www.w3.org/1999/xlink" width="500" zoomAndPan="magnify" viewBox="0 0 375 374.999991" height="500" preserveAspectRatio="xMidYMid meet" version="1.2"><defs><clipPath id="b919c45c8b"><path d="M 112.5 119.003906 L 215 119.003906 L 215 170.753906 L 112.5 170.753906 Z M 112.5 119.003906 "/></clipPath><clipPath id="b2c974a634"><path d="M 158 119.003906 L 262.5 119.003906 L 262.5 170.753906 L 158 170.753906 Z M 158 119.003906 "/></clipPath></defs><g id="3bd1de56e6"><rect x="0" width="375" y="0" height="374.999991" style="fill:#ffffff;fill-opacity:1;stroke:none;"/><rect x="0" width="375" y="0" height="374.999991" style="fill:#121212;fill-opacity:1;stroke:none;"/><g clip-rule="nonzero" clip-path="url(#b919c45c8b)"><path style=" stroke:none;fill-rule:nonzero;fill:#ffd700;fill-opacity:1;" d="M 131.566406 170.078125 L 112.5 170.078125 L 163.476562 119.101562 L 214.453125 170.078125 L 195.390625 170.078125 L 163.476562 138.171875 Z M 144.722656 127.71875 L 131.242188 127.71875 L 131.242188 143.761719 L 144.722656 130.742188 Z M 144.722656 127.71875 "/></g><g clip-rule="nonzero" clip-path="url(#b2c974a634)"><path style=" stroke:none;fill-rule:nonzero;fill:#ffffff;fill-opacity:1;" d="M 201.066406 148.824219 L 191.535156 139.292969 L 211.523438 119.304688 L 262.5 170.277344 L 243.433594 170.277344 L 211.523438 138.371094 Z M 162.246094 157.84375 L 162.246094 153.621094 L 158.023438 153.621094 L 158.023438 157.84375 Z M 169.261719 157.84375 L 169.261719 153.621094 L 165.039062 153.621094 L 165.039062 157.84375 Z M 162.246094 164.769531 L 162.246094 160.542969 L 158.023438 160.542969 L 158.023438 164.769531 Z M 169.261719 164.769531 L 169.261719 160.542969 L 165.039062 160.542969 L 165.039062 164.769531 Z M 169.261719 164.769531 "/></g><g style="fill:#ffd700;fill-opacity:1;"><g transform="translate(69.222642, 226.058174)"><path style="stroke:none" d="M 12.015625 -7.296875 L 26.453125 -7.296875 L 26.453125 0 L 4.140625 0 L 4.140625 -36.234375 L 25.890625 -36.234375 L 25.890625 -28.984375 L 12.015625 -28.984375 L 12.015625 -21.84375 L 24.53125 -21.84375 L 24.53125 -14.75 L 12.015625 -14.75 Z M 12.015625 -7.296875 "/></g></g><g style="fill:#ffd700;fill-opacity:1;"><g transform="translate(95.206771, 226.058174)"><path style="stroke:none" d="M 17.296875 -6.734375 L 20.703125 -6.734375 L 20.703125 0 L 15.375 0 C 12.300781 0 9.875 -0.882812 8.09375 -2.65625 C 6.320312 -4.4375 5.4375 -6.878906 5.4375 -9.984375 L 5.4375 -21.890625 L 0.359375 -21.890625 L 0.359375 -23.5 L 11.4375 -35.25 L 12.84375 -35.25 L 12.84375 -27.953125 L 20.546875 -27.953125 L 20.546875 -21.890625 L 13 -21.890625 L 13 -10.96875 C 13 -9.625 13.367188 -8.582031 14.109375 -7.84375 C 14.847656 -7.101562 15.910156 -6.734375 17.296875 -6.734375 Z M 17.296875 -6.734375 "/></g></g><g style="fill:#ffd700;fill-opacity:1;"><g transform="translate(114.513627, 226.058174)"><path style="stroke:none" d="M 19.625 -28.625 C 22.789062 -28.625 25.289062 -27.570312 27.125 -25.46875 C 28.957031 -23.363281 29.875 -20.535156 29.875 -16.984375 L 29.875 0 L 22.3125 0 L 22.3125 -15.734375 C 22.3125 -17.804688 21.929688 -19.367188 21.171875 -20.421875 C 20.410156 -21.472656 19.164062 -22 17.4375 -22 C 15.582031 -22 14.078125 -21.351562 12.921875 -20.0625 C 11.765625 -18.769531 11.1875 -16.984375 11.1875 -14.703125 L 11.1875 0 L 3.625 0 L 3.625 -38.046875 L 11.1875 -38.046875 L 11.1875 -25.359375 C 12.25 -26.359375 13.503906 -27.148438 14.953125 -27.734375 C 16.410156 -28.328125 17.96875 -28.625 19.625 -28.625 Z M 19.625 -28.625 "/></g></g><g style="fill:#ffd700;fill-opacity:1;"><g transform="translate(144.742221, 226.058174)"><path style="stroke:none" d="M 3.625 -31.6875 L 3.625 -38.71875 L 11.1875 -38.71875 L 11.1875 -31.6875 Z M 3.625 0 L 3.625 -27.953125 L 11.1875 -27.953125 L 11.1875 0 Z M 3.625 0 "/></g></g><g style="fill:#ffd700;fill-opacity:1;"><g transform="translate(156.595369, 226.058174)"><path style="stroke:none" d="M 16.921875 0.78125 C 14.023438 0.78125 11.4375 0.132812 9.15625 -1.15625 C 6.882812 -2.457031 5.09375 -4.21875 3.78125 -6.4375 C 2.46875 -8.664062 1.8125 -11.179688 1.8125 -13.984375 C 1.8125 -16.804688 2.46875 -19.332031 3.78125 -21.5625 C 5.09375 -23.789062 6.882812 -25.539062 9.15625 -26.8125 C 11.4375 -28.09375 14.023438 -28.734375 16.921875 -28.734375 C 19.785156 -28.734375 22.359375 -28.09375 24.640625 -26.8125 C 26.921875 -25.539062 28.710938 -23.789062 30.015625 -21.5625 C 31.328125 -19.332031 31.984375 -16.804688 31.984375 -13.984375 C 31.984375 -11.179688 31.328125 -8.664062 30.015625 -6.4375 C 28.710938 -4.21875 26.921875 -2.457031 24.640625 -1.15625 C 22.359375 0.132812 19.785156 0.78125 16.921875 0.78125 Z M 16.921875 -6.3125 C 19.097656 -6.3125 20.875 -7.019531 22.25 -8.4375 C 23.632812 -9.851562 24.328125 -11.703125 24.328125 -13.984375 C 24.328125 -16.253906 23.632812 -18.097656 22.25 -19.515625 C 20.875 -20.929688 19.097656 -21.640625 16.921875 -21.640625 C 14.710938 -21.640625 12.914062 -20.929688 11.53125 -19.515625 C 10.15625 -18.097656 9.46875 -16.253906 9.46875 -13.984375 C 9.46875 -11.703125 10.15625 -9.851562 11.53125 -8.4375 C 12.914062 -7.019531 14.710938 -6.3125 16.921875 -6.3125 Z M 16.921875 -6.3125 "/></g></g><g style="fill:#ffffff;fill-opacity:1;"><g transform="translate(195.187256, 226.56605)"><path style="stroke:none" d="M 29.40625 -36.234375 L 33.859375 -36.234375 L 33.859375 0 L 30.03125 0 L 9.375 -28.265625 L 9.375 0 L 4.96875 0 L 4.96875 -36.234375 L 9.0625 -36.234375 L 29.40625 -8.28125 Z M 29.40625 -36.234375 "/></g></g><g style="fill:#ffffff;fill-opacity:1;"><g transform="translate(231.006128, 226.56605)"><path style="stroke:none" d="M 30.59375 -13.875 C 30.59375 -13.59375 30.570312 -13.320312 30.53125 -13.0625 C 30.5 -12.8125 30.484375 -12.546875 30.484375 -12.265625 L 6.625 -12.265625 C 6.96875 -9.679688 8.035156 -7.601562 9.828125 -6.03125 C 11.628906 -4.457031 13.84375 -3.671875 16.46875 -3.671875 C 18.394531 -3.671875 20.117188 -4.101562 21.640625 -4.96875 C 23.160156 -5.832031 24.347656 -7.023438 25.203125 -8.546875 L 29.8125 -8.546875 C 28.644531 -5.640625 26.882812 -3.382812 24.53125 -1.78125 C 22.1875 -0.175781 19.5 0.625 16.46875 0.625 C 13.769531 0.625 11.34375 -0.0078125 9.1875 -1.28125 C 7.03125 -2.5625 5.328125 -4.304688 4.078125 -6.515625 C 2.835938 -8.722656 2.21875 -11.210938 2.21875 -13.984375 C 2.21875 -16.742188 2.835938 -19.226562 4.078125 -21.4375 C 5.328125 -23.644531 7.03125 -25.382812 9.1875 -26.65625 C 11.34375 -27.9375 13.769531 -28.578125 16.46875 -28.578125 C 19.289062 -28.578125 21.765625 -27.921875 23.890625 -26.609375 C 26.015625 -25.296875 27.660156 -23.523438 28.828125 -21.296875 C 30.003906 -19.078125 30.59375 -16.601562 30.59375 -13.875 Z M 16.46875 -24.375 C 13.945312 -24.375 11.8125 -23.640625 10.0625 -22.171875 C 8.320312 -20.710938 7.210938 -18.773438 6.734375 -16.359375 L 26.140625 -16.359375 C 25.691406 -18.835938 24.585938 -20.789062 22.828125 -22.21875 C 21.066406 -23.65625 18.945312 -24.375 16.46875 -24.375 Z M 16.46875 -24.375 "/></g></g><g style="fill:#ffffff;fill-opacity:1;"><g transform="translate(260.768868, 226.56605)"><path style="stroke:none" d="M 13.296875 0.625 C 9.953125 0.625 7.28125 -0.203125 5.28125 -1.859375 C 3.28125 -3.515625 2.226562 -5.757812 2.125 -8.59375 L 6.421875 -8.59375 C 6.523438 -6.90625 7.234375 -5.628906 8.546875 -4.765625 C 9.859375 -3.898438 11.476562 -3.46875 13.40625 -3.46875 C 15.34375 -3.46875 16.921875 -3.847656 18.140625 -4.609375 C 19.367188 -5.367188 19.984375 -6.4375 19.984375 -7.8125 C 19.984375 -8.882812 19.644531 -9.710938 18.96875 -10.296875 C 18.300781 -10.890625 17.414062 -11.332031 16.3125 -11.625 C 15.207031 -11.914062 14.015625 -12.164062 12.734375 -12.375 C 11.554688 -12.582031 10.375 -12.832031 9.1875 -13.125 C 8 -13.414062 6.90625 -13.828125 5.90625 -14.359375 C 4.90625 -14.898438 4.109375 -15.660156 3.515625 -16.640625 C 2.929688 -17.628906 2.640625 -18.914062 2.640625 -20.5 C 2.640625 -22.882812 3.601562 -24.828125 5.53125 -26.328125 C 7.46875 -27.828125 10.007812 -28.578125 13.15625 -28.578125 C 16.320312 -28.578125 18.851562 -27.789062 20.75 -26.21875 C 22.65625 -24.644531 23.640625 -22.550781 23.703125 -19.9375 L 19.5625 -19.9375 C 19.457031 -21.445312 18.835938 -22.609375 17.703125 -23.421875 C 16.566406 -24.234375 15.03125 -24.640625 13.09375 -24.640625 C 11.195312 -24.640625 9.6875 -24.269531 8.5625 -23.53125 C 7.445312 -22.789062 6.890625 -21.816406 6.890625 -20.609375 C 6.890625 -19.640625 7.207031 -18.894531 7.84375 -18.375 C 8.476562 -17.851562 9.320312 -17.460938 10.375 -17.203125 C 11.425781 -16.953125 12.578125 -16.722656 13.828125 -16.515625 C 15.035156 -16.335938 16.257812 -16.101562 17.5 -15.8125 C 18.738281 -15.519531 19.875 -15.085938 20.90625 -14.515625 C 21.945312 -13.953125 22.773438 -13.148438 23.390625 -12.109375 C 24.015625 -11.078125 24.328125 -9.71875 24.328125 -8.03125 C 24.328125 -5.40625 23.316406 -3.304688 21.296875 -1.734375 C 19.273438 -0.160156 16.609375 0.625 13.296875 0.625 Z M 13.296875 0.625 "/></g></g><g style="fill:#ffffff;fill-opacity:1;"><g transform="translate(284.37195, 226.56605)"><path style="stroke:none" d="M 16 -4.09375 L 19.046875 -4.09375 L 19.046875 0 L 15.421875 0 C 12.421875 0 10.054688 -0.867188 8.328125 -2.609375 C 6.609375 -4.359375 5.75 -6.75 5.75 -9.78125 L 5.75 -23.96875 L 0.828125 -23.96875 L 0.828125 -24.75 L 9.46875 -33.859375 L 10.140625 -33.859375 L 10.140625 -27.953125 L 18.890625 -27.953125 L 18.890625 -23.96875 L 10.140625 -23.96875 L 10.140625 -9.9375 C 10.140625 -8.039062 10.640625 -6.59375 11.640625 -5.59375 C 12.648438 -4.59375 14.101562 -4.09375 16 -4.09375 Z M 16 -4.09375 "/></g></g><g style="fill:#ffffff;fill-opacity:1;"><g transform="translate(130.073933, 248.201146)"><path style="stroke:none" d="M 1.359375 -9.0625 L 2.65625 -9.0625 L 2.65625 -1.125 L 7.5625 -1.125 L 7.5625 0 L 1.359375 0 Z M 1.359375 -9.0625 "/></g></g><g style="fill:#ffffff;fill-opacity:1;"><g transform="translate(145.60884, 248.201146)"><path style="stroke:none" d="M 1.359375 -9.0625 L 2.65625 -9.0625 L 2.65625 0 L 1.359375 0 Z M 1.359375 -9.0625 "/></g></g><g style="fill:#ffffff;fill-opacity:1;"><g transform="translate(157.466188, 248.201146)"><path style="stroke:none" d="M 4 0.109375 C 3.320312 0.109375 2.664062 0.00390625 2.03125 -0.203125 C 1.394531 -0.421875 0.894531 -0.695312 0.53125 -1.03125 L 1.015625 -2.046875 C 1.359375 -1.734375 1.796875 -1.476562 2.328125 -1.28125 C 2.867188 -1.09375 3.425781 -1 4 -1 C 4.75 -1 5.3125 -1.125 5.6875 -1.375 C 6.0625 -1.632812 6.25 -1.972656 6.25 -2.390625 C 6.25 -2.703125 6.144531 -2.957031 5.9375 -3.15625 C 5.738281 -3.351562 5.488281 -3.5 5.1875 -3.59375 C 4.882812 -3.695312 4.460938 -3.816406 3.921875 -3.953125 C 3.242188 -4.117188 2.691406 -4.28125 2.265625 -4.4375 C 1.847656 -4.601562 1.488281 -4.859375 1.1875 -5.203125 C 0.894531 -5.546875 0.75 -6.003906 0.75 -6.578125 C 0.75 -7.066406 0.875 -7.503906 1.125 -7.890625 C 1.382812 -8.273438 1.769531 -8.582031 2.28125 -8.8125 C 2.800781 -9.050781 3.445312 -9.171875 4.21875 -9.171875 C 4.757812 -9.171875 5.285156 -9.097656 5.796875 -8.953125 C 6.316406 -8.816406 6.765625 -8.625 7.140625 -8.375 L 6.703125 -7.328125 C 6.328125 -7.566406 5.921875 -7.75 5.484375 -7.875 C 5.054688 -8 4.632812 -8.0625 4.21875 -8.0625 C 3.488281 -8.0625 2.9375 -7.925781 2.5625 -7.65625 C 2.195312 -7.394531 2.015625 -7.050781 2.015625 -6.625 C 2.015625 -6.320312 2.117188 -6.070312 2.328125 -5.875 C 2.535156 -5.675781 2.789062 -5.523438 3.09375 -5.421875 C 3.40625 -5.316406 3.828125 -5.203125 4.359375 -5.078125 C 5.035156 -4.910156 5.582031 -4.742188 6 -4.578125 C 6.414062 -4.421875 6.769531 -4.171875 7.0625 -3.828125 C 7.363281 -3.492188 7.515625 -3.039062 7.515625 -2.46875 C 7.515625 -2 7.382812 -1.566406 7.125 -1.171875 C 6.863281 -0.773438 6.46875 -0.460938 5.9375 -0.234375 C 5.414062 -0.00390625 4.769531 0.109375 4 0.109375 Z M 4 0.109375 "/></g></g><g style="fill:#ffffff;fill-opacity:1;"><g transform="translate(173.350724, 248.201146)"><path style="stroke:none" d="M 3.15625 -7.9375 L 0.046875 -7.9375 L 0.046875 -9.0625 L 7.546875 -9.0625 L 7.546875 -7.9375 L 4.4375 -7.9375 L 4.4375 0 L 3.15625 0 Z M 3.15625 -7.9375 "/></g></g><g style="fill:#ffffff;fill-opacity:1;"><g transform="translate(188.794994, 248.201146)"><path style="stroke:none" d="M 1.359375 -9.0625 L 2.65625 -9.0625 L 2.65625 0 L 1.359375 0 Z M 1.359375 -9.0625 "/></g></g><g style="fill:#ffffff;fill-opacity:1;"><g transform="translate(200.652342, 248.201146)"><path style="stroke:none" d="M 9.15625 -9.0625 L 9.15625 0 L 8.09375 0 L 2.65625 -6.765625 L 2.65625 0 L 1.359375 0 L 1.359375 -9.0625 L 2.421875 -9.0625 L 7.859375 -2.3125 L 7.859375 -9.0625 Z M 9.15625 -9.0625 "/></g></g><g style="fill:#ffffff;fill-opacity:1;"><g transform="translate(219.010175, 248.201146)"><path style="stroke:none" d="M 7.640625 -4.578125 L 8.890625 -4.578125 L 8.890625 -1.046875 C 8.441406 -0.679688 7.914062 -0.394531 7.3125 -0.1875 C 6.71875 0.0078125 6.097656 0.109375 5.453125 0.109375 C 4.535156 0.109375 3.707031 -0.0859375 2.96875 -0.484375 C 2.238281 -0.890625 1.664062 -1.445312 1.25 -2.15625 C 0.832031 -2.863281 0.625 -3.65625 0.625 -4.53125 C 0.625 -5.414062 0.832031 -6.210938 1.25 -6.921875 C 1.664062 -7.628906 2.242188 -8.179688 2.984375 -8.578125 C 3.722656 -8.972656 4.554688 -9.171875 5.484375 -9.171875 C 6.203125 -9.171875 6.859375 -9.050781 7.453125 -8.8125 C 8.046875 -8.570312 8.550781 -8.222656 8.96875 -7.765625 L 8.15625 -6.96875 C 7.4375 -7.664062 6.5625 -8.015625 5.53125 -8.015625 C 4.84375 -8.015625 4.222656 -7.863281 3.671875 -7.5625 C 3.117188 -7.269531 2.6875 -6.859375 2.375 -6.328125 C 2.070312 -5.796875 1.921875 -5.195312 1.921875 -4.53125 C 1.921875 -3.875 2.070312 -3.28125 2.375 -2.75 C 2.6875 -2.21875 3.117188 -1.800781 3.671875 -1.5 C 4.222656 -1.195312 4.835938 -1.046875 5.515625 -1.046875 C 6.328125 -1.046875 7.035156 -1.238281 7.640625 -1.625 Z M 7.640625 -4.578125 "/></g></g><g style="fill:#ffffff;fill-opacity:1;"><g transform="translate(236.850037, 248.201146)"><path style="stroke:none" d="M 4 0.109375 C 3.320312 0.109375 2.664062 0.00390625 2.03125 -0.203125 C 1.394531 -0.421875 0.894531 -0.695312 0.53125 -1.03125 L 1.015625 -2.046875 C 1.359375 -1.734375 1.796875 -1.476562 2.328125 -1.28125 C 2.867188 -1.09375 3.425781 -1 4 -1 C 4.75 -1 5.3125 -1.125 5.6875 -1.375 C 6.0625 -1.632812 6.25 -1.972656 6.25 -2.390625 C 6.25 -2.703125 6.144531 -2.957031 5.9375 -3.15625 C 5.738281 -3.351562 5.488281 -3.5 5.1875 -3.59375 C 4.882812 -3.695312 4.460938 -3.816406 3.921875 -3.953125 C 3.242188 -4.117188 2.691406 -4.28125 2.265625 -4.4375 C 1.847656 -4.601562 1.488281 -4.859375 1.1875 -5.203125 C 0.894531 -5.546875 0.75 -6.003906 0.75 -6.578125 C 0.75 -7.066406 0.875 -7.503906 1.125 -7.890625 C 1.382812 -8.273438 1.769531 -8.582031 2.28125 -8.8125 C 2.800781 -9.050781 3.445312 -9.171875 4.21875 -9.171875 C 4.757812 -9.171875 5.285156 -9.097656 5.796875 -8.953125 C 6.316406 -8.816406 6.765625 -8.625 7.140625 -8.375 L 6.703125 -7.328125 C 6.328125 -7.566406 5.921875 -7.75 5.484375 -7.875 C 5.054688 -8 4.632812 -8.0625 4.21875 -8.0625 C 3.488281 -8.0625 2.9375 -7.925781 2.5625 -7.65625 C 2.195312 -7.394531 2.015625 -7.050781 2.015625 -6.625 C 2.015625 -6.320312 2.117188 -6.070312 2.328125 -5.875 C 2.535156 -5.675781 2.789062 -5.523438 3.09375 -5.421875 C 3.40625 -5.316406 3.828125 -5.203125 4.359375 -5.078125 C 5.035156 -4.910156 5.582031 -4.742188 6 -4.578125 C 6.414062 -4.421875 6.769531 -4.171875 7.0625 -3.828125 C 7.363281 -3.492188 7.515625 -3.039062 7.515625 -2.46875 C 7.515625 -2 7.382812 -1.566406 7.125 -1.171875 C 6.863281 -0.773438 6.46875 -0.460938 5.9375 -0.234375 C 5.414062 -0.00390625 4.769531 0.109375 4 0.109375 Z M 4 0.109375 "/></g></g></g></svg>