<svg xmlns="http://www.w3.org/2000/svg" xmlns:xlink="http://www.w3.org/1999/xlink" width="500" zoomAndPan="magnify" viewBox="0 0 375 374.999991" height="500" preserveAspectRatio="xMidYMid meet" version="1.2"><defs><clipPath id="6f51edcd8a"><path d="M 59.265625 90.417969 L 223 90.417969 L 223 173 L 59.265625 173 Z M 59.265625 90.417969 "/></clipPath><clipPath id="6b7453ecd0"><path d="M 132 90.417969 L 300.042969 90.417969 L 300.042969 173 L 132 173 Z M 132 90.417969 "/></clipPath></defs><g id="b96fbac708"><g clip-rule="nonzero" clip-path="url(#6f51edcd8a)"><path style=" stroke:none;fill-rule:nonzero;fill:#e50000;fill-opacity:1;" d="M 89.875 172.398438 L 59.265625 172.398438 L 141.089844 90.574219 L 222.921875 172.398438 L 192.320312 172.398438 L 141.089844 121.183594 Z M 110.988281 104.40625 L 89.347656 104.40625 L 89.347656 130.15625 L 110.988281 109.257812 Z M 110.988281 104.40625 "/></g><g clip-rule="nonzero" clip-path="url(#6b7453ecd0)"><path style=" stroke:none;fill-rule:nonzero;fill:#242424;fill-opacity:1;" d="M 201.429688 138.285156 L 186.132812 122.984375 L 218.21875 90.898438 L 300.042969 172.722656 L 269.433594 172.722656 L 218.21875 121.503906 Z M 139.117188 152.761719 L 139.117188 145.980469 L 132.335938 145.980469 L 132.335938 152.761719 Z M 150.378906 152.761719 L 150.378906 145.980469 L 143.601562 145.980469 L 143.601562 152.761719 Z M 139.117188 163.882812 L 139.117188 157.097656 L 132.335938 157.097656 L 132.335938 163.882812 Z M 150.378906 163.882812 L 150.378906 157.097656 L 143.601562 157.097656 L 143.601562 163.882812 Z M 150.378906 163.882812 "/></g><g style="fill:#e50000;fill-opacity:1;"><g transform="translate(-4.49776, 244.330854)"><path style="stroke:none" d="M 19.28125 -11.71875 L 42.453125 -11.71875 L 42.453125 0 L 6.640625 0 L 6.640625 -58.171875 L 41.546875 -58.171875 L 41.546875 -46.53125 L 19.28125 -46.53125 L 19.28125 -35.0625 L 39.390625 -35.0625 L 39.390625 -23.6875 L 19.28125 -23.6875 Z M 19.28125 -11.71875 "/></g></g><g style="fill:#e50000;fill-opacity:1;"><g transform="translate(37.211514, 244.330854)"><path style="stroke:none" d="M 27.75 -10.796875 L 33.234375 -10.796875 L 33.234375 0 L 24.671875 0 C 19.742188 0 15.851562 -1.425781 13 -4.28125 C 10.144531 -7.132812 8.71875 -11.050781 8.71875 -16.03125 L 8.71875 -35.15625 L 0.578125 -35.15625 L 0.578125 -37.71875 L 18.359375 -56.59375 L 20.609375 -56.59375 L 20.609375 -44.875 L 32.984375 -44.875 L 32.984375 -35.15625 L 20.859375 -35.15625 L 20.859375 -17.609375 C 20.859375 -15.453125 21.453125 -13.773438 22.640625 -12.578125 C 23.828125 -11.390625 25.53125 -10.796875 27.75 -10.796875 Z M 27.75 -10.796875 "/></g></g><g style="fill:#e50000;fill-opacity:1;"><g transform="translate(68.202545, 244.330854)"><path style="stroke:none" d="M 31.5 -45.953125 C 36.59375 -45.953125 40.601562 -44.257812 43.53125 -40.875 C 46.46875 -37.5 47.9375 -32.957031 47.9375 -27.25 L 47.9375 0 L 35.8125 0 L 35.8125 -25.265625 C 35.8125 -28.585938 35.203125 -31.09375 33.984375 -32.78125 C 32.765625 -34.46875 30.769531 -35.3125 28 -35.3125 C 25.007812 -35.3125 22.585938 -34.269531 20.734375 -32.1875 C 18.878906 -30.113281 17.953125 -27.25 17.953125 -23.59375 L 17.953125 0 L 5.8125 0 L 5.8125 -61.078125 L 17.953125 -61.078125 L 17.953125 -40.71875 C 19.671875 -42.320312 21.691406 -43.59375 24.015625 -44.53125 C 26.335938 -45.476562 28.832031 -45.953125 31.5 -45.953125 Z M 31.5 -45.953125 "/></g></g><g style="fill:#e50000;fill-opacity:1;"><g transform="translate(116.724959, 244.330854)"><path style="stroke:none" d="M 5.8125 -50.859375 L 5.8125 -62.15625 L 17.953125 -62.15625 L 17.953125 -50.859375 Z M 5.8125 0 L 5.8125 -44.875 L 17.953125 -44.875 L 17.953125 0 Z M 5.8125 0 "/></g></g><g style="fill:#e50000;fill-opacity:1;"><g transform="translate(135.751428, 244.330854)"><path style="stroke:none" d="M 27.171875 1.25 C 22.515625 1.25 18.359375 0.210938 14.703125 -1.859375 C 11.046875 -3.941406 8.164062 -6.769531 6.0625 -10.34375 C 3.957031 -13.914062 2.90625 -17.945312 2.90625 -22.4375 C 2.90625 -26.976562 3.957031 -31.035156 6.0625 -34.609375 C 8.164062 -38.179688 11.046875 -40.988281 14.703125 -43.03125 C 18.359375 -45.082031 22.515625 -46.109375 27.171875 -46.109375 C 31.765625 -46.109375 35.890625 -45.082031 39.546875 -43.03125 C 43.203125 -40.988281 46.082031 -38.179688 48.1875 -34.609375 C 50.300781 -31.035156 51.359375 -26.976562 51.359375 -22.4375 C 51.359375 -17.945312 50.300781 -13.914062 48.1875 -10.34375 C 46.082031 -6.769531 43.203125 -3.941406 39.546875 -1.859375 C 35.890625 0.210938 31.765625 1.25 27.171875 1.25 Z M 27.171875 -10.140625 C 30.660156 -10.140625 33.507812 -11.273438 35.71875 -13.546875 C 37.9375 -15.816406 39.046875 -18.78125 39.046875 -22.4375 C 39.046875 -26.09375 37.9375 -29.054688 35.71875 -31.328125 C 33.507812 -33.597656 30.660156 -34.734375 27.171875 -34.734375 C 23.628906 -34.734375 20.75 -33.597656 18.53125 -31.328125 C 16.3125 -29.054688 15.203125 -26.09375 15.203125 -22.4375 C 15.203125 -18.78125 16.3125 -15.816406 18.53125 -13.546875 C 20.75 -11.273438 23.628906 -10.140625 27.171875 -10.140625 Z M 27.171875 -10.140625 "/></g></g><g style="fill:#242424;fill-opacity:1;"><g transform="translate(197.704943, 245.146098)"><path style="stroke:none" d="M 47.203125 -58.171875 L 54.34375 -58.171875 L 54.34375 0 L 48.1875 0 L 15.046875 -45.375 L 15.046875 0 L 7.984375 0 L 7.984375 -58.171875 L 14.546875 -58.171875 L 47.203125 -13.296875 Z M 47.203125 -58.171875 "/></g></g><g style="fill:#242424;fill-opacity:1;"><g transform="translate(255.200775, 245.146098)"><path style="stroke:none" d="M 49.109375 -22.265625 C 49.109375 -21.828125 49.078125 -21.398438 49.015625 -20.984375 C 48.960938 -20.566406 48.9375 -20.132812 48.9375 -19.6875 L 10.640625 -19.6875 C 11.191406 -15.539062 12.90625 -12.207031 15.78125 -9.6875 C 18.664062 -7.164062 22.210938 -5.90625 26.421875 -5.90625 C 29.523438 -5.90625 32.296875 -6.59375 34.734375 -7.96875 C 37.171875 -9.351562 39.082031 -11.265625 40.46875 -13.703125 L 47.859375 -13.703125 C 45.972656 -9.054688 43.144531 -5.441406 39.375 -2.859375 C 35.613281 -0.285156 31.296875 1 26.421875 1 C 22.097656 1 18.207031 -0.0234375 14.75 -2.078125 C 11.289062 -4.128906 8.5625 -6.925781 6.5625 -10.46875 C 4.570312 -14.007812 3.578125 -18 3.578125 -22.4375 C 3.578125 -26.863281 4.570312 -30.847656 6.5625 -34.390625 C 8.5625 -37.941406 11.289062 -40.742188 14.75 -42.796875 C 18.207031 -44.847656 22.097656 -45.875 26.421875 -45.875 C 30.960938 -45.875 34.9375 -44.816406 38.34375 -42.703125 C 41.75 -40.597656 44.394531 -37.757812 46.28125 -34.1875 C 48.164062 -30.613281 49.109375 -26.640625 49.109375 -22.265625 Z M 26.421875 -39.140625 C 22.378906 -39.140625 18.957031 -37.960938 16.15625 -35.609375 C 13.363281 -33.253906 11.578125 -30.132812 10.796875 -26.25 L 41.96875 -26.25 C 41.238281 -30.238281 39.460938 -33.382812 36.640625 -35.6875 C 33.816406 -37.988281 30.410156 -39.140625 26.421875 -39.140625 Z M 26.421875 -39.140625 "/></g></g><g style="fill:#242424;fill-opacity:1;"><g transform="translate(302.975408, 245.146098)"><path style="stroke:none" d="M 21.359375 1 C 15.984375 1 11.6875 -0.328125 8.46875 -2.984375 C 5.257812 -5.648438 3.570312 -9.253906 3.40625 -13.796875 L 10.296875 -13.796875 C 10.460938 -11.078125 11.597656 -9.023438 13.703125 -7.640625 C 15.816406 -6.253906 18.421875 -5.5625 21.515625 -5.5625 C 24.617188 -5.5625 27.15625 -6.171875 29.125 -7.390625 C 31.09375 -8.609375 32.078125 -10.328125 32.078125 -12.546875 C 32.078125 -14.265625 31.535156 -15.59375 30.453125 -16.53125 C 29.367188 -17.476562 27.941406 -18.1875 26.171875 -18.65625 C 24.398438 -19.125 22.488281 -19.523438 20.4375 -19.859375 C 18.550781 -20.191406 16.648438 -20.59375 14.734375 -21.0625 C 12.828125 -21.53125 11.070312 -22.191406 9.46875 -23.046875 C 7.863281 -23.910156 6.585938 -25.128906 5.640625 -26.703125 C 4.703125 -28.285156 4.234375 -30.351562 4.234375 -32.90625 C 4.234375 -36.726562 5.785156 -39.84375 8.890625 -42.25 C 11.992188 -44.664062 16.066406 -45.875 21.109375 -45.875 C 26.203125 -45.875 30.269531 -44.613281 33.3125 -42.09375 C 36.363281 -39.570312 37.945312 -36.203125 38.0625 -31.984375 L 31.40625 -31.984375 C 31.238281 -34.421875 30.238281 -36.289062 28.40625 -37.59375 C 26.582031 -38.894531 24.117188 -39.546875 21.015625 -39.546875 C 17.972656 -39.546875 15.550781 -38.953125 13.75 -37.765625 C 11.945312 -36.578125 11.046875 -35.015625 11.046875 -33.078125 C 11.046875 -31.523438 11.554688 -30.332031 12.578125 -29.5 C 13.609375 -28.664062 14.96875 -28.039062 16.65625 -27.625 C 18.34375 -27.207031 20.1875 -26.832031 22.1875 -26.5 C 24.125 -26.226562 26.085938 -25.851562 28.078125 -25.375 C 30.078125 -24.90625 31.90625 -24.210938 33.5625 -23.296875 C 35.226562 -22.390625 36.554688 -21.101562 37.546875 -19.4375 C 38.546875 -17.78125 39.046875 -15.59375 39.046875 -12.875 C 39.046875 -8.664062 37.425781 -5.300781 34.1875 -2.78125 C 30.945312 -0.257812 26.671875 1 21.359375 1 Z M 21.359375 1 "/></g></g><g style="fill:#242424;fill-opacity:1;"><g transform="translate(340.862667, 245.146098)"><path style="stroke:none" d="M 25.671875 -6.5625 L 30.578125 -6.5625 L 30.578125 0 L 24.765625 0 C 19.941406 0 16.144531 -1.394531 13.375 -4.1875 C 10.601562 -6.988281 9.21875 -10.828125 9.21875 -15.703125 L 9.21875 -38.46875 L 1.328125 -38.46875 L 1.328125 -39.71875 L 15.203125 -54.34375 L 16.28125 -54.34375 L 16.28125 -44.875 L 30.328125 -44.875 L 30.328125 -38.46875 L 16.28125 -38.46875 L 16.28125 -15.953125 C 16.28125 -12.910156 17.082031 -10.582031 18.6875 -8.96875 C 20.300781 -7.363281 22.628906 -6.5625 25.671875 -6.5625 Z M 25.671875 -6.5625 "/></g></g><g style="fill:#242424;fill-opacity:1;"><g transform="translate(87.474863, 279.059107)"><path style="stroke:none" d="M 2.1875 -14.5625 L 4.265625 -14.5625 L 4.265625 -1.8125 L 12.140625 -1.8125 L 12.140625 0 L 2.1875 0 Z M 2.1875 -14.5625 "/></g></g><g style="fill:#242424;fill-opacity:1;"><g transform="translate(112.411227, 279.059107)"><path style="stroke:none" d="M 2.1875 -14.5625 L 4.265625 -14.5625 L 4.265625 0 L 2.1875 0 Z M 2.1875 -14.5625 "/></g></g><g style="fill:#242424;fill-opacity:1;"><g transform="translate(131.444437, 279.059107)"><path style="stroke:none" d="M 6.421875 0.171875 C 5.328125 0.171875 4.269531 0 3.25 -0.34375 C 2.226562 -0.6875 1.429688 -1.125 0.859375 -1.65625 L 1.625 -3.28125 C 2.175781 -2.78125 2.882812 -2.375 3.75 -2.0625 C 4.613281 -1.75 5.503906 -1.59375 6.421875 -1.59375 C 7.628906 -1.59375 8.53125 -1.796875 9.125 -2.203125 C 9.726562 -2.617188 10.03125 -3.164062 10.03125 -3.84375 C 10.03125 -4.34375 9.863281 -4.75 9.53125 -5.0625 C 9.207031 -5.375 8.804688 -5.613281 8.328125 -5.78125 C 7.847656 -5.945312 7.171875 -6.132812 6.296875 -6.34375 C 5.203125 -6.601562 4.316406 -6.863281 3.640625 -7.125 C 2.972656 -7.394531 2.398438 -7.800781 1.921875 -8.34375 C 1.441406 -8.894531 1.203125 -9.632812 1.203125 -10.5625 C 1.203125 -11.34375 1.40625 -12.039062 1.8125 -12.65625 C 2.226562 -13.28125 2.847656 -13.78125 3.671875 -14.15625 C 4.503906 -14.53125 5.539062 -14.71875 6.78125 -14.71875 C 7.632812 -14.71875 8.476562 -14.609375 9.3125 -14.390625 C 10.144531 -14.171875 10.859375 -13.851562 11.453125 -13.4375 L 10.765625 -11.765625 C 10.160156 -12.160156 9.507812 -12.457031 8.8125 -12.65625 C 8.125 -12.851562 7.445312 -12.953125 6.78125 -12.953125 C 5.601562 -12.953125 4.71875 -12.738281 4.125 -12.3125 C 3.539062 -11.882812 3.25 -11.328125 3.25 -10.640625 C 3.25 -10.148438 3.414062 -9.75 3.75 -9.4375 C 4.082031 -9.125 4.492188 -8.878906 4.984375 -8.703125 C 5.472656 -8.523438 6.140625 -8.34375 6.984375 -8.15625 C 8.078125 -7.882812 8.957031 -7.617188 9.625 -7.359375 C 10.289062 -7.097656 10.863281 -6.695312 11.34375 -6.15625 C 11.820312 -5.613281 12.0625 -4.882812 12.0625 -3.96875 C 12.0625 -3.207031 11.851562 -2.507812 11.4375 -1.875 C 11.019531 -1.25 10.390625 -0.75 9.546875 -0.375 C 8.703125 -0.0078125 7.660156 0.171875 6.421875 0.171875 Z M 6.421875 0.171875 "/></g></g><g style="fill:#242424;fill-opacity:1;"><g transform="translate(156.942018, 279.059107)"><path style="stroke:none" d="M 5.078125 -12.75 L 0.078125 -12.75 L 0.078125 -14.5625 L 12.125 -14.5625 L 12.125 -12.75 L 7.140625 -12.75 L 7.140625 0 L 5.078125 0 Z M 5.078125 -12.75 "/></g></g><g style="fill:#242424;fill-opacity:1;"><g transform="translate(181.732892, 279.059107)"><path style="stroke:none" d="M 2.1875 -14.5625 L 4.265625 -14.5625 L 4.265625 0 L 2.1875 0 Z M 2.1875 -14.5625 "/></g></g><g style="fill:#242424;fill-opacity:1;"><g transform="translate(200.766102, 279.059107)"><path style="stroke:none" d="M 14.703125 -14.5625 L 14.703125 0 L 13 0 L 4.265625 -10.859375 L 4.265625 0 L 2.1875 0 L 2.1875 -14.5625 L 3.890625 -14.5625 L 12.625 -3.703125 L 12.625 -14.5625 Z M 14.703125 -14.5625 "/></g></g><g style="fill:#242424;fill-opacity:1;"><g transform="translate(230.233777, 279.059107)"><path style="stroke:none" d="M 12.265625 -7.359375 L 14.265625 -7.359375 L 14.265625 -1.6875 C 13.546875 -1.09375 12.707031 -0.632812 11.75 -0.3125 C 10.789062 0.0078125 9.789062 0.171875 8.75 0.171875 C 7.28125 0.171875 5.957031 -0.148438 4.78125 -0.796875 C 3.601562 -1.441406 2.675781 -2.328125 2 -3.453125 C 1.332031 -4.585938 1 -5.863281 1 -7.28125 C 1 -8.695312 1.332031 -9.972656 2 -11.109375 C 2.675781 -12.242188 3.609375 -13.128906 4.796875 -13.765625 C 5.984375 -14.398438 7.316406 -14.71875 8.796875 -14.71875 C 9.960938 -14.71875 11.019531 -14.523438 11.96875 -14.140625 C 12.914062 -13.765625 13.722656 -13.210938 14.390625 -12.484375 L 13.109375 -11.1875 C 11.941406 -12.3125 10.53125 -12.875 8.875 -12.875 C 7.769531 -12.875 6.773438 -12.632812 5.890625 -12.15625 C 5.015625 -11.675781 4.328125 -11.007812 3.828125 -10.15625 C 3.328125 -9.300781 3.078125 -8.34375 3.078125 -7.28125 C 3.078125 -6.226562 3.328125 -5.273438 3.828125 -4.421875 C 4.328125 -3.566406 5.015625 -2.894531 5.890625 -2.40625 C 6.773438 -1.925781 7.765625 -1.6875 8.859375 -1.6875 C 10.160156 -1.6875 11.296875 -2 12.265625 -2.625 Z M 12.265625 -7.359375 "/></g></g><g style="fill:#242424;fill-opacity:1;"><g transform="translate(258.870014, 279.059107)"><path style="stroke:none" d="M 6.421875 0.171875 C 5.328125 0.171875 4.269531 0 3.25 -0.34375 C 2.226562 -0.6875 1.429688 -1.125 0.859375 -1.65625 L 1.625 -3.28125 C 2.175781 -2.78125 2.882812 -2.375 3.75 -2.0625 C 4.613281 -1.75 5.503906 -1.59375 6.421875 -1.59375 C 7.628906 -1.59375 8.53125 -1.796875 9.125 -2.203125 C 9.726562 -2.617188 10.03125 -3.164062 10.03125 -3.84375 C 10.03125 -4.34375 9.863281 -4.75 9.53125 -5.0625 C 9.207031 -5.375 8.804688 -5.613281 8.328125 -5.78125 C 7.847656 -5.945312 7.171875 -6.132812 6.296875 -6.34375 C 5.203125 -6.601562 4.316406 -6.863281 3.640625 -7.125 C 2.972656 -7.394531 2.398438 -7.800781 1.921875 -8.34375 C 1.441406 -8.894531 1.203125 -9.632812 1.203125 -10.5625 C 1.203125 -11.34375 1.40625 -12.039062 1.8125 -12.65625 C 2.226562 -13.28125 2.847656 -13.78125 3.671875 -14.15625 C 4.503906 -14.53125 5.539062 -14.71875 6.78125 -14.71875 C 7.632812 -14.71875 8.476562 -14.609375 9.3125 -14.390625 C 10.144531 -14.171875 10.859375 -13.851562 11.453125 -13.4375 L 10.765625 -11.765625 C 10.160156 -12.160156 9.507812 -12.457031 8.8125 -12.65625 C 8.125 -12.851562 7.445312 -12.953125 6.78125 -12.953125 C 5.601562 -12.953125 4.71875 -12.738281 4.125 -12.3125 C 3.539062 -11.882812 3.25 -11.328125 3.25 -10.640625 C 3.25 -10.148438 3.414062 -9.75 3.75 -9.4375 C 4.082031 -9.125 4.492188 -8.878906 4.984375 -8.703125 C 5.472656 -8.523438 6.140625 -8.34375 6.984375 -8.15625 C 8.078125 -7.882812 8.957031 -7.617188 9.625 -7.359375 C 10.289062 -7.097656 10.863281 -6.695312 11.34375 -6.15625 C 11.820312 -5.613281 12.0625 -4.882812 12.0625 -3.96875 C 12.0625 -3.207031 11.851562 -2.507812 11.4375 -1.875 C 11.019531 -1.25 10.390625 -0.75 9.546875 -0.375 C 8.703125 -0.0078125 7.660156 0.171875 6.421875 0.171875 Z M 6.421875 0.171875 "/></g></g></g></svg>