<svg xmlns="http://www.w3.org/2000/svg" xmlns:xlink="http://www.w3.org/1999/xlink" width="500" zoomAndPan="magnify" viewBox="0 0 375 374.999991" height="500" preserveAspectRatio="xMidYMid meet" version="1.2"><defs><clipPath id="a0be64c32f"><path d="M 7.320312 163.042969 L 85 163.042969 L 85 202 L 7.320312 202 Z M 7.320312 163.042969 "/></clipPath><clipPath id="9642c8a899"><path d="M 41 163.042969 L 120.570312 163.042969 L 120.570312 202 L 41 202 Z M 41 163.042969 "/></clipPath></defs><g id="a8e7a29221"><g clip-rule="nonzero" clip-path="url(#a0be64c32f)"><path style=" stroke:none;fill-rule:nonzero;fill:#e50000;fill-opacity:1;" d="M 21.710938 201.59375 L 7.320312 201.59375 L 45.792969 163.117188 L 84.273438 201.59375 L 69.882812 201.59375 L 45.792969 177.507812 Z M 31.640625 169.621094 L 21.464844 169.621094 L 21.464844 181.730469 L 31.640625 171.902344 Z M 31.640625 169.621094 "/></g><g clip-rule="nonzero" clip-path="url(#9642c8a899)"><path style=" stroke:none;fill-rule:nonzero;fill:#242424;fill-opacity:1;" d="M 74.167969 185.550781 L 66.972656 178.355469 L 82.058594 163.269531 L 120.535156 201.742188 L 106.144531 201.742188 L 82.058594 177.660156 Z M 44.867188 192.359375 L 44.867188 189.171875 L 41.679688 189.171875 L 41.679688 192.359375 Z M 50.164062 192.359375 L 50.164062 189.171875 L 46.972656 189.171875 L 46.972656 192.359375 Z M 44.867188 197.585938 L 44.867188 194.394531 L 41.679688 194.394531 L 41.679688 197.585938 Z M 50.164062 197.585938 L 50.164062 194.394531 L 46.972656 194.394531 L 46.972656 197.585938 Z M 50.164062 197.585938 "/></g><g style="fill:#e50000;fill-opacity:1;"><g transform="translate(119.127325, 201.157166)"><path style="stroke:none" d="M 12.484375 -7.59375 L 27.5 -7.59375 L 27.5 0 L 4.3125 0 L 4.3125 -37.671875 L 26.90625 -37.671875 L 26.90625 -30.140625 L 12.484375 -30.140625 L 12.484375 -22.703125 L 25.5 -22.703125 L 25.5 -15.34375 L 12.484375 -15.34375 Z M 12.484375 -7.59375 "/></g></g><g style="fill:#e50000;fill-opacity:1;"><g transform="translate(146.135772, 201.157166)"><path style="stroke:none" d="M 17.96875 -7 L 21.53125 -7 L 21.53125 0 L 15.984375 0 C 12.785156 0 10.265625 -0.921875 8.421875 -2.765625 C 6.578125 -4.617188 5.65625 -7.160156 5.65625 -10.390625 L 5.65625 -22.765625 L 0.375 -22.765625 L 0.375 -24.4375 L 11.890625 -36.640625 L 13.34375 -36.640625 L 13.34375 -29.0625 L 21.359375 -29.0625 L 21.359375 -22.765625 L 13.5 -22.765625 L 13.5 -11.40625 C 13.5 -10.007812 13.882812 -8.925781 14.65625 -8.15625 C 15.4375 -7.382812 16.539062 -7 17.96875 -7 Z M 17.96875 -7 "/></g></g><g style="fill:#e50000;fill-opacity:1;"><g transform="translate(166.203723, 201.157166)"><path style="stroke:none" d="M 20.390625 -29.765625 C 23.691406 -29.765625 26.289062 -28.664062 28.1875 -26.46875 C 30.09375 -24.28125 31.046875 -21.34375 31.046875 -17.65625 L 31.046875 0 L 23.1875 0 L 23.1875 -16.359375 C 23.1875 -18.515625 22.789062 -20.140625 22 -21.234375 C 21.21875 -22.328125 19.929688 -22.875 18.140625 -22.875 C 16.203125 -22.875 14.628906 -22.195312 13.421875 -20.84375 C 12.222656 -19.5 11.625 -17.644531 11.625 -15.28125 L 11.625 0 L 3.765625 0 L 3.765625 -39.546875 L 11.625 -39.546875 L 11.625 -26.375 C 12.738281 -27.40625 14.046875 -28.226562 15.546875 -28.84375 C 17.054688 -29.457031 18.671875 -29.765625 20.390625 -29.765625 Z M 20.390625 -29.765625 "/></g></g><g style="fill:#e50000;fill-opacity:1;"><g transform="translate(197.623956, 201.157166)"><path style="stroke:none" d="M 3.765625 -32.9375 L 3.765625 -40.25 L 11.625 -40.25 L 11.625 -32.9375 Z M 3.765625 0 L 3.765625 -29.0625 L 11.625 -29.0625 L 11.625 0 Z M 3.765625 0 "/></g></g><g style="fill:#e50000;fill-opacity:1;"><g transform="translate(209.944367, 201.157166)"><path style="stroke:none" d="M 17.59375 0.8125 C 14.582031 0.8125 11.890625 0.140625 9.515625 -1.203125 C 7.148438 -2.554688 5.285156 -4.390625 3.921875 -6.703125 C 2.566406 -9.015625 1.890625 -11.625 1.890625 -14.53125 C 1.890625 -17.46875 2.566406 -20.09375 3.921875 -22.40625 C 5.285156 -24.726562 7.148438 -26.550781 9.515625 -27.875 C 11.890625 -29.195312 14.582031 -29.859375 17.59375 -29.859375 C 20.570312 -29.859375 23.242188 -29.195312 25.609375 -27.875 C 27.984375 -26.550781 29.847656 -24.726562 31.203125 -22.40625 C 32.566406 -20.09375 33.25 -17.46875 33.25 -14.53125 C 33.25 -11.625 32.566406 -9.015625 31.203125 -6.703125 C 29.847656 -4.390625 27.984375 -2.554688 25.609375 -1.203125 C 23.242188 0.140625 20.570312 0.8125 17.59375 0.8125 Z M 17.59375 -6.5625 C 19.851562 -6.5625 21.703125 -7.296875 23.140625 -8.765625 C 24.578125 -10.242188 25.296875 -12.164062 25.296875 -14.53125 C 25.296875 -16.894531 24.578125 -18.8125 23.140625 -20.28125 C 21.703125 -21.757812 19.851562 -22.5 17.59375 -22.5 C 15.300781 -22.5 13.4375 -21.757812 12 -20.28125 C 10.5625 -18.8125 9.84375 -16.894531 9.84375 -14.53125 C 9.84375 -12.164062 10.5625 -10.242188 12 -8.765625 C 13.4375 -7.296875 15.300781 -6.5625 17.59375 -6.5625 Z M 17.59375 -6.5625 "/></g></g><g style="fill:#242424;fill-opacity:1;"><g transform="translate(243.591289, 201.907166)"><path style="stroke:none" d="M 30.5625 -37.671875 L 35.1875 -37.671875 L 35.1875 0 L 31.21875 0 L 9.734375 -29.375 L 9.734375 0 L 5.171875 0 L 5.171875 -37.671875 L 9.421875 -37.671875 L 30.5625 -8.609375 Z M 30.5625 -37.671875 "/></g></g><g style="fill:#242424;fill-opacity:1;"><g transform="translate(280.822174, 201.907166)"><path style="stroke:none" d="M 31.796875 -14.421875 C 31.796875 -14.128906 31.78125 -13.847656 31.75 -13.578125 C 31.71875 -13.316406 31.703125 -13.039062 31.703125 -12.75 L 6.890625 -12.75 C 7.242188 -10.0625 8.351562 -7.898438 10.21875 -6.265625 C 12.082031 -4.640625 14.378906 -3.828125 17.109375 -3.828125 C 19.117188 -3.828125 20.910156 -4.273438 22.484375 -5.171875 C 24.066406 -6.066406 25.304688 -7.300781 26.203125 -8.875 L 31 -8.875 C 29.78125 -5.863281 27.945312 -3.523438 25.5 -1.859375 C 23.0625 -0.191406 20.265625 0.640625 17.109375 0.640625 C 14.316406 0.640625 11.796875 -0.0195312 9.546875 -1.34375 C 7.304688 -2.675781 5.539062 -4.488281 4.25 -6.78125 C 2.957031 -9.070312 2.3125 -11.65625 2.3125 -14.53125 C 2.3125 -17.394531 2.957031 -19.972656 4.25 -22.265625 C 5.539062 -24.566406 7.304688 -26.378906 9.546875 -27.703125 C 11.796875 -29.035156 14.316406 -29.703125 17.109375 -29.703125 C 20.054688 -29.703125 22.628906 -29.019531 24.828125 -27.65625 C 27.035156 -26.289062 28.75 -24.453125 29.96875 -22.140625 C 31.1875 -19.828125 31.796875 -17.253906 31.796875 -14.421875 Z M 17.109375 -25.34375 C 14.492188 -25.34375 12.28125 -24.578125 10.46875 -23.046875 C 8.65625 -21.523438 7.5 -19.507812 7 -17 L 27.171875 -17 C 26.703125 -19.582031 25.550781 -21.617188 23.71875 -23.109375 C 21.894531 -24.597656 19.691406 -25.34375 17.109375 -25.34375 Z M 17.109375 -25.34375 "/></g></g><g style="fill:#242424;fill-opacity:1;"><g transform="translate(311.758188, 201.907166)"><path style="stroke:none" d="M 13.828125 0.640625 C 10.347656 0.640625 7.566406 -0.21875 5.484375 -1.9375 C 3.410156 -3.65625 2.316406 -5.988281 2.203125 -8.9375 L 6.671875 -8.9375 C 6.773438 -7.175781 7.507812 -5.847656 8.875 -4.953125 C 10.238281 -4.054688 11.925781 -3.609375 13.9375 -3.609375 C 15.945312 -3.609375 17.585938 -4 18.859375 -4.78125 C 20.128906 -5.570312 20.765625 -6.6875 20.765625 -8.125 C 20.765625 -9.238281 20.414062 -10.097656 19.71875 -10.703125 C 19.019531 -11.316406 18.097656 -11.773438 16.953125 -12.078125 C 15.804688 -12.378906 14.566406 -12.640625 13.234375 -12.859375 C 12.015625 -13.078125 10.785156 -13.335938 9.546875 -13.640625 C 8.304688 -13.941406 7.164062 -14.367188 6.125 -14.921875 C 5.09375 -15.484375 4.269531 -16.273438 3.65625 -17.296875 C 3.050781 -18.316406 2.75 -19.65625 2.75 -21.3125 C 2.75 -23.78125 3.75 -25.796875 5.75 -27.359375 C 7.757812 -28.921875 10.398438 -29.703125 13.671875 -29.703125 C 16.972656 -29.703125 19.609375 -28.882812 21.578125 -27.25 C 23.546875 -25.625 24.566406 -23.445312 24.640625 -20.71875 L 20.34375 -20.71875 C 20.238281 -22.289062 19.59375 -23.5 18.40625 -24.34375 C 17.21875 -25.1875 15.617188 -25.609375 13.609375 -25.609375 C 11.640625 -25.609375 10.070312 -25.222656 8.90625 -24.453125 C 7.738281 -23.679688 7.15625 -22.671875 7.15625 -21.421875 C 7.15625 -20.410156 7.484375 -19.632812 8.140625 -19.09375 C 8.804688 -18.5625 9.6875 -18.160156 10.78125 -17.890625 C 11.882812 -17.617188 13.082031 -17.378906 14.375 -17.171875 C 15.625 -16.984375 16.894531 -16.738281 18.1875 -16.4375 C 19.476562 -16.132812 20.660156 -15.6875 21.734375 -15.09375 C 22.816406 -14.5 23.679688 -13.664062 24.328125 -12.59375 C 24.972656 -11.519531 25.296875 -10.101562 25.296875 -8.34375 C 25.296875 -5.613281 24.242188 -3.429688 22.140625 -1.796875 C 20.046875 -0.171875 17.273438 0.640625 13.828125 0.640625 Z M 13.828125 0.640625 "/></g></g><g style="fill:#242424;fill-opacity:1;"><g transform="translate(336.291726, 201.907166)"><path style="stroke:none" d="M 16.625 -4.25 L 19.796875 -4.25 L 19.796875 0 L 16.03125 0 C 12.914062 0 10.457031 -0.90625 8.65625 -2.71875 C 6.863281 -4.53125 5.96875 -7.015625 5.96875 -10.171875 L 5.96875 -24.921875 L 0.859375 -24.921875 L 0.859375 -25.71875 L 9.84375 -35.1875 L 10.546875 -35.1875 L 10.546875 -29.0625 L 19.640625 -29.0625 L 19.640625 -24.921875 L 10.546875 -24.921875 L 10.546875 -10.328125 C 10.546875 -8.359375 11.066406 -6.851562 12.109375 -5.8125 C 13.148438 -4.769531 14.65625 -4.25 16.625 -4.25 Z M 16.625 -4.25 "/></g></g></g></svg>