<svg xmlns="http://www.w3.org/2000/svg" xmlns:xlink="http://www.w3.org/1999/xlink" width="500" zoomAndPan="magnify" viewBox="0 0 375 374.999991" height="500" preserveAspectRatio="xMidYMid meet" version="1.2"><defs><clipPath id="d1f262ff75"><path d="M 5.605469 125.199219 L 253 125.199219 L 253 249 L 5.605469 249 Z M 5.605469 125.199219 "/></clipPath><clipPath id="36c0c589ed"><path d="M 115 125.199219 L 369.355469 125.199219 L 369.355469 249.699219 L 115 249.699219 Z M 115 125.199219 "/></clipPath></defs><g id="f51b77cd0c"><g style="fill:#000000;fill-opacity:1;"><g transform="translate(183.222648, 202.399981)"><path style="stroke:none" d="M 2.140625 -10.28125 C 1.867188 -10.28125 1.648438 -10.363281 1.484375 -10.53125 C 1.316406 -10.707031 1.234375 -10.925781 1.234375 -11.1875 C 1.234375 -11.445312 1.316406 -11.660156 1.484375 -11.828125 C 1.648438 -11.992188 1.867188 -12.078125 2.140625 -12.078125 C 2.410156 -12.078125 2.628906 -11.992188 2.796875 -11.828125 C 2.972656 -11.660156 3.0625 -11.445312 3.0625 -11.1875 C 3.0625 -10.925781 2.972656 -10.707031 2.796875 -10.53125 C 2.628906 -10.363281 2.410156 -10.28125 2.140625 -10.28125 Z M 1.5 0 L 1.5 -8.625 L 2.78125 -8.625 L 2.78125 0 Z M 1.5 0 "/></g></g><g clip-rule="nonzero" clip-path="url(#d1f262ff75)"><path style=" stroke:none;fill-rule:nonzero;fill:#e50000;fill-opacity:1;" d="M 51.816406 248.972656 L 5.605469 248.972656 L 129.140625 125.4375 L 252.683594 248.972656 L 206.480469 248.972656 L 129.140625 171.644531 Z M 83.695312 146.316406 L 51.023438 146.316406 L 51.023438 185.195312 L 83.695312 153.644531 Z M 83.695312 146.316406 "/></g><g clip-rule="nonzero" clip-path="url(#36c0c589ed)"><path style=" stroke:none;fill-rule:nonzero;fill:#242424;fill-opacity:1;" d="M 220.238281 197.46875 L 197.140625 174.363281 L 245.582031 125.921875 L 369.117188 249.457031 L 322.90625 249.457031 L 245.582031 172.132812 Z M 126.160156 219.324219 L 126.160156 209.085938 L 115.921875 209.085938 L 115.921875 219.324219 Z M 143.164062 219.324219 L 143.164062 209.085938 L 132.929688 209.085938 L 132.929688 219.324219 Z M 126.160156 236.109375 L 126.160156 225.867188 L 115.921875 225.867188 L 115.921875 236.109375 Z M 143.164062 236.109375 L 143.164062 225.867188 L 132.929688 225.867188 L 132.929688 236.109375 Z M 143.164062 236.109375 "/></g></g></svg>